<svg xmlns="http://www.w3.org/2000/svg" xmlns:xlink="http://www.w3.org/1999/xlink" width="900" zoomAndPan="magnify" viewBox="0 0 675 675.000002" height="900" preserveAspectRatio="xMidYMid meet" version="1.0"><defs><clipPath id="id1"><path d="M 66.222656 127.007812 L 606.917969 127.007812 L 606.917969 665.648438 L 66.222656 665.648438 Z M 66.222656 127.007812 " clip-rule="nonzero"/></clipPath></defs><g clip-path="url(#id1)"><path fill="#ff7a00" d="M 66.222656 396.917969 C 65.863281 533.921875 167.375 647.269531 299.257812 665.484375 C 309.269531 666.863281 318.277344 659.238281 318.75 649.144531 L 319.921875 624.007812 C 320.214844 617.703125 317.355469 611.632812 312.230469 607.945312 C 275.242188 581.324219 256.429688 536.039062 259.925781 490.605469 L 264.203125 434.953125 L 281.4375 210.863281 C 281.679688 207.726562 284.59375 205.394531 287.839844 206.023438 C 290.367188 206.515625 292.097656 208.894531 292.132812 211.46875 L 295.117188 430.703125 C 295.148438 433.058594 297.066406 434.953125 299.421875 434.953125 L 301.207031 434.953125 C 303.523438 434.953125 305.425781 433.121094 305.507812 430.808594 L 313.742188 211.074219 C 313.847656 208.199219 316.214844 205.921875 319.09375 205.921875 L 319.253906 205.921875 C 322.136719 205.921875 324.503906 208.207031 324.605469 211.089844 L 332.167969 430.796875 C 332.246094 433.113281 334.148438 434.953125 336.46875 434.953125 C 338.789062 434.953125 340.691406 433.113281 340.769531 430.796875 L 348.332031 211.089844 C 348.433594 208.207031 350.796875 205.921875 353.683594 205.921875 L 353.84375 205.921875 C 356.722656 205.921875 359.085938 208.199219 359.195312 211.074219 L 367.425781 430.808594 C 367.511719 433.121094 369.414062 434.953125 371.726562 434.953125 L 373.515625 434.953125 C 375.867188 434.953125 377.785156 433.058594 377.820312 430.703125 L 380.808594 211.203125 C 380.851562 207.957031 383.773438 205.421875 387.125 206.003906 C 389.574219 206.433594 391.324219 208.621094 391.515625 211.097656 L 408.730469 434.953125 L 413.25 493.691406 C 416.679688 538.308594 396.800781 581.53125 360.691406 607.957031 C 355.605469 611.679688 352.722656 617.707031 353.015625 624.007812 L 354.1875 649.164062 C 354.660156 659.339844 363.777344 666.878906 373.867188 665.484375 C 505.523438 647.316406 606.921875 534.332031 606.921875 397.644531 C 606.921875 248.464844 486.144531 127.496094 337.054688 127.238281 C 188.3125 126.976562 66.613281 248.144531 66.222656 396.917969 " fill-opacity="1" fill-rule="nonzero"/></g><path fill="#ffffff" d="M 101.449219 442.042969 C 101.542969 404.335938 109.058594 367.726562 123.777344 333.230469 C 138.003906 299.886719 158.320312 269.914062 184.160156 244.140625 C 207.996094 220.367188 235.40625 201.316406 265.710938 187.402344 C 270.511719 183.445312 276.449219 180.839844 282.902344 180.175781 C 314.613281 168.082031 347.980469 161.957031 382.230469 161.957031 L 382.726562 161.957031 C 388.867188 161.96875 394.976562 162.179688 401.050781 162.578125 C 380.421875 157.03125 358.9375 154.132812 337.011719 154.09375 L 336.574219 154.09375 C 303.457031 154.09375 271.28125 160.609375 240.941406 173.460938 C 211.609375 185.886719 185.226562 203.667969 162.519531 226.316406 C 139.808594 248.964844 121.957031 275.304688 109.453125 304.605469 C 96.519531 334.917969 89.917969 367.089844 89.832031 400.226562 C 89.753906 429.46875 94.863281 458.195312 104.667969 485.1875 C 102.503906 470.996094 101.410156 456.574219 101.449219 442.042969 " fill-opacity="1" fill-rule="nonzero"/><path fill="#ff7a00" d="M 249.269531 66.46875 C 249.269531 94.457031 226.585938 117.148438 198.601562 117.148438 C 170.617188 117.148438 147.933594 94.457031 147.933594 66.46875 C 147.933594 38.484375 170.617188 15.789062 198.601562 15.789062 C 226.585938 15.789062 249.269531 38.484375 249.269531 66.46875 " fill-opacity="1" fill-rule="nonzero"/><path fill="#ff7a00" d="M 352.070312 16.847656 C 332.894531 8.285156 310.414062 16.898438 301.855469 36.078125 C 293.296875 55.257812 301.902344 77.746094 321.078125 86.304688 C 340.253906 94.863281 362.738281 86.257812 371.292969 67.078125 C 379.851562 47.894531 371.246094 25.410156 352.070312 16.847656 " fill-opacity="1" fill-rule="nonzero"/><path fill="#ff7a00" d="M 473.40625 58.636719 C 461.820312 45.71875 441.960938 44.640625 429.042969 56.234375 C 416.128906 67.820312 415.050781 87.6875 426.640625 100.601562 C 438.222656 113.519531 458.085938 114.597656 471 103.011719 C 483.917969 91.421875 484.992188 71.554688 473.40625 58.636719 " fill-opacity="1" fill-rule="nonzero"/></svg>