<svg xmlns="http://www.w3.org/2000/svg" xmlns:xlink="http://www.w3.org/1999/xlink" width="900" zoomAndPan="magnify" viewBox="0 0 675 675.000002" height="900" preserveAspectRatio="xMidYMid meet" version="1.0"><defs><clipPath id="id1"><path d="M 0.5 162 L 674.5 162 L 674.5 530 L 0.5 530 Z M 0.5 162 " clip-rule="nonzero"/></clipPath><clipPath id="id2"><path d="M 132 143.648438 L 229 143.648438 L 229 188 L 132 188 Z M 132 143.648438 " clip-rule="nonzero"/></clipPath></defs><g clip-path="url(#id1)"><path fill="#ff7a00" d="M 609.476562 383.957031 L 674.511719 383.957031 L 322.128906 162.988281 L 201.246094 246.035156 L 201.246094 187.6875 L 145.566406 187.679688 C 145.566406 187.679688 145.742188 259.226562 145.652344 284.222656 L 0.488281 383.957031 L 57.246094 383.957031 L 141.5625 320.015625 L 141.5625 436.996094 C 129.933594 436.996094 120.507812 446.414062 120.507812 458.039062 L 120.507812 529.972656 L 128.363281 529.972656 L 128.363281 468.410156 L 133.390625 468.410156 L 133.390625 529.972656 L 141.878906 529.972656 L 141.878906 468.410156 L 146.90625 468.410156 L 146.90625 529.972656 L 155.394531 529.972656 L 155.394531 468.410156 L 160.421875 468.410156 L 160.421875 529.972656 L 170.171875 529.972656 L 170.171875 458.039062 C 170.171875 446.414062 160.738281 436.996094 149.105469 436.996094 L 149.105469 314.289062 L 322.128906 183.078125 L 508.625 313.460938 L 508.625 445.402344 C 498.585938 448.566406 490.894531 466.183594 490.894531 487.429688 C 490.894531 510.925781 500.292969 529.972656 511.878906 529.972656 C 523.476562 529.972656 532.871094 510.925781 532.871094 487.429688 C 532.871094 466.601562 525.484375 449.269531 515.726562 445.609375 L 515.726562 318.417969 L 609.476562 383.957031 " fill-opacity="1" fill-rule="nonzero"/></g><path fill="#ff7a00" d="M 274.160156 324.410156 C 274.160156 325.632812 274.109375 326.769531 274.019531 327.851562 L 274.203125 327.773438 C 277.320312 326.503906 280.574219 327.261719 281.460938 329.457031 C 282.355469 331.648438 280.550781 334.453125 277.4375 335.71875 C 275.558594 336.480469 273.648438 336.496094 272.21875 335.925781 C 267.863281 346.347656 257.691406 345.160156 257.691406 345.160156 C 241.769531 343.226562 241.222656 324.410156 241.222656 324.410156 Z M 257.054688 308.648438 C 262.535156 304.773438 257.691406 295.371094 257.691406 295.371094 C 265.855469 306.4375 257.691406 312.246094 257.691406 312.246094 C 253.335938 316.882812 255.609375 321.09375 255.609375 321.09375 C 249.246094 313.351562 257.054688 308.648438 257.054688 308.648438 Z M 216.917969 372.179688 L 303.277344 372.179688 L 303.277344 285.878906 L 216.917969 285.878906 L 216.917969 372.179688 " fill-opacity="1" fill-rule="nonzero"/><path fill="#ff7a00" d="M 243.53125 453.761719 L 271.566406 453.761719 L 271.566406 455.585938 C 271.566406 458.84375 268.925781 461.488281 265.664062 461.488281 L 249.363281 461.488281 C 246.140625 461.488281 243.53125 458.871094 243.53125 455.65625 Z M 257.550781 439.953125 C 265.253906 439.953125 271.507812 444.941406 271.566406 451.109375 L 243.53125 451.109375 C 243.589844 444.941406 249.839844 439.953125 257.550781 439.953125 Z M 216.917969 490.007812 L 303.277344 490.007812 L 303.277344 403.707031 L 216.917969 403.707031 L 216.917969 490.007812 " fill-opacity="1" fill-rule="nonzero"/><path fill="#ff7a00" d="M 366.890625 326.375 L 409.519531 326.375 C 386.269531 352.652344 366.890625 326.375 366.890625 326.375 Z M 341.472656 285.878906 L 341.472656 372.179688 L 427.835938 372.179688 L 427.835938 285.878906 L 341.472656 285.878906 " fill-opacity="1" fill-rule="nonzero"/><path fill="#ff7a00" d="M 360.976562 439.097656 C 361.613281 434.167969 366.605469 431.042969 371.441406 432.175781 C 376.308594 433.3125 382.949219 436.476562 386.914062 445.039062 C 386.914062 445.039062 389.128906 455.546875 406.101562 458.996094 C 406.101562 458.996094 412.566406 458.867188 411.453125 462.738281 C 411.453125 462.738281 407.027344 466.242188 403.148438 462.738281 C 403.148438 462.738281 392.449219 456.652344 382.296875 455.363281 C 382.296875 455.363281 373.808594 457.210938 365.320312 450.566406 C 365.320312 450.566406 360.175781 445.332031 360.976562 439.097656 Z M 341.472656 490.007812 L 427.835938 490.007812 L 427.835938 403.707031 L 341.472656 403.707031 L 341.472656 490.007812 " fill-opacity="1" fill-rule="nonzero"/><g clip-path="url(#id2)"><path fill="#ffffff" d="M 169.773438 185.058594 C 161.984375 174.019531 145.691406 165.617188 145.691406 165.617188 C 165.144531 171.925781 169.855469 181.371094 169.855469 181.371094 L 169.988281 181.269531 C 169.773438 183.300781 169.714844 185.421875 169.855469 187.679688 C 169.855469 187.679688 182.484375 165.617188 199.253906 170.871094 C 199.253906 170.871094 179.851562 173.5 172.496094 187.679688 C 172.496094 187.679688 219.269531 186.105469 228.730469 143.558594 C 228.730469 143.558594 178.660156 145.703125 170.808594 176.621094 C 170.398438 149.335938 132.027344 153.542969 132.027344 153.542969 C 143.066406 179.796875 169.773438 185.058594 169.773438 185.058594 " fill-opacity="1" fill-rule="nonzero"/></g></svg>