<svg xmlns="http://www.w3.org/2000/svg" xmlns:xlink="http://www.w3.org/1999/xlink" width="900" zoomAndPan="magnify" viewBox="0 0 675 675.000002" height="900" preserveAspectRatio="xMidYMid meet" version="1.0"><defs><clipPath id="id1"><path d="M 83 11.441406 L 592 11.441406 L 592 613 L 83 613 Z M 83 11.441406 " clip-rule="nonzero"/></clipPath><clipPath id="id2"><path d="M 325 379 L 519 379 L 519 674 L 325 674 Z M 325 379 " clip-rule="nonzero"/></clipPath></defs><g clip-path="url(#id1)"><path fill="#ff7a00" d="M 573.210938 11.441406 L 101.691406 11.441406 C 91.441406 11.441406 83.753906 19.132812 83.753906 29.390625 L 83.753906 594.730469 C 83.753906 604.984375 91.441406 612.675781 101.691406 612.675781 L 305.417969 612.675781 C 315.667969 612.675781 323.359375 604.984375 323.359375 594.730469 C 323.359375 584.472656 315.667969 576.78125 305.417969 576.78125 L 120.910156 576.78125 L 120.910156 48.621094 L 553.992188 48.621094 L 553.992188 576.78125 L 537.335938 576.78125 C 527.085938 576.78125 519.398438 584.472656 519.398438 594.730469 C 519.398438 604.984375 527.085938 612.675781 537.335938 612.675781 L 573.210938 612.675781 C 583.460938 612.675781 591.152344 604.984375 591.152344 594.730469 L 591.152344 29.390625 C 591.152344 19.132812 583.460938 11.441406 573.210938 11.441406 Z M 573.210938 11.441406 " fill-opacity="1" fill-rule="nonzero"/></g><g clip-path="url(#id2)"><path fill="#ff7a00" d="M 507.867188 448.585938 C 506.585938 447.304688 504.023438 444.742188 504.023438 443.460938 C 504.023438 442.179688 502.742188 438.332031 502.742188 435.769531 C 501.460938 428.078125 500.179688 416.539062 492.488281 407.566406 C 483.519531 398.589844 473.269531 397.308594 464.300781 397.308594 C 461.738281 397.308594 457.894531 397.308594 456.613281 396.027344 C 455.332031 396.027344 452.769531 393.464844 451.488281 392.183594 C 445.082031 387.054688 436.113281 379.363281 423.300781 379.363281 C 410.484375 379.363281 401.515625 387.054688 395.109375 392.183594 C 393.828125 393.464844 391.265625 396.027344 389.984375 396.027344 C 388.703125 396.027344 384.859375 397.308594 382.296875 397.308594 C 374.609375 398.589844 363.078125 399.875 354.109375 407.566406 C 345.140625 416.539062 343.859375 426.792969 343.859375 435.769531 C 343.859375 438.332031 343.859375 442.179688 342.578125 443.460938 C 342.578125 444.742188 340.015625 447.304688 338.734375 448.585938 C 333.609375 454.996094 325.921875 463.972656 325.921875 476.789062 C 325.921875 489.609375 333.609375 498.582031 338.734375 504.992188 C 340.015625 506.277344 342.578125 508.839844 342.578125 510.121094 C 342.578125 511.402344 343.859375 515.25 343.859375 517.8125 C 343.859375 522.941406 345.140625 529.351562 347.703125 535.761719 L 347.703125 656.261719 C 347.703125 663.957031 352.828125 670.363281 359.234375 672.929688 C 361.796875 674.210938 364.359375 674.210938 365.640625 674.210938 C 370.765625 674.210938 374.609375 672.929688 378.453125 669.082031 L 422.019531 625.496094 L 464.300781 667.800781 C 469.425781 672.929688 477.113281 674.210938 484.800781 671.648438 C 491.207031 669.082031 496.332031 662.671875 496.332031 654.980469 L 496.332031 535.761719 C 498.898438 529.351562 500.179688 522.941406 500.179688 517.8125 C 500.179688 515.25 500.179688 511.402344 501.460938 510.121094 C 501.460938 508.839844 504.023438 506.277344 505.304688 504.992188 C 510.429688 498.582031 518.117188 489.609375 518.117188 476.789062 C 518.117188 463.972656 512.992188 454.996094 507.867188 448.585938 Z M 369.484375 471.664062 C 373.328125 467.816406 375.890625 462.6875 378.453125 457.5625 C 381.015625 451.152344 381.015625 446.023438 382.296875 439.613281 C 382.296875 438.332031 382.296875 435.769531 382.296875 434.484375 C 383.578125 434.484375 386.140625 434.484375 387.421875 434.484375 C 392.546875 434.484375 398.953125 433.203125 405.359375 430.640625 C 411.769531 428.078125 415.613281 424.230469 419.457031 421.667969 C 420.738281 420.386719 422.019531 419.101562 423.300781 417.820312 C 424.582031 419.101562 425.863281 420.386719 427.144531 421.667969 C 430.988281 425.511719 436.113281 428.078125 441.238281 430.640625 C 447.644531 433.203125 452.769531 433.203125 459.175781 434.484375 C 460.457031 434.484375 463.019531 434.484375 464.300781 434.484375 C 464.300781 435.769531 464.300781 438.332031 464.300781 439.613281 C 464.300781 444.742188 465.582031 451.152344 468.144531 457.5625 C 470.707031 463.972656 474.550781 467.816406 477.113281 471.664062 C 478.394531 472.945312 479.675781 474.226562 480.957031 475.507812 C 479.675781 476.789062 478.394531 478.074219 477.113281 479.355469 C 473.269531 483.199219 470.707031 488.328125 468.144531 493.457031 C 466.863281 497.300781 465.582031 502.429688 465.582031 506.277344 C 463.019531 508.839844 461.738281 512.683594 460.457031 516.53125 C 460.457031 516.53125 459.175781 516.53125 459.175781 516.53125 C 454.050781 516.53125 447.644531 517.8125 442.519531 520.375 C 436.113281 522.941406 432.269531 526.785156 428.425781 529.351562 C 427.144531 530.632812 425.863281 531.914062 424.582031 533.195312 C 423.300781 531.914062 422.019531 530.632812 420.738281 529.351562 C 416.894531 525.503906 411.769531 522.941406 406.640625 520.375 C 400.234375 517.8125 395.109375 517.8125 388.703125 516.53125 C 387.421875 516.53125 384.859375 516.53125 383.578125 516.53125 C 383.578125 515.25 383.578125 512.683594 383.578125 511.402344 C 383.578125 506.273438 382.296875 499.867188 379.734375 493.457031 C 377.171875 487.046875 373.328125 483.199219 370.765625 479.355469 C 369.484375 478.074219 368.203125 476.789062 366.921875 475.507812 C 366.921875 475.507812 368.203125 472.945312 369.484375 471.664062 Z M 437.394531 585.757812 C 429.707031 578.066406 418.175781 578.066406 411.765625 585.757812 L 387.421875 610.113281 L 387.421875 554.988281 C 388.703125 554.988281 391.265625 554.988281 392.546875 556.273438 C 393.828125 556.273438 396.390625 558.835938 397.671875 560.117188 C 404.078125 565.246094 413.050781 572.9375 425.863281 572.9375 C 438.675781 572.9375 447.644531 565.246094 454.050781 560.117188 C 455.332031 558.835938 457.894531 556.273438 459.175781 556.273438 C 460.457031 556.273438 461.738281 556.273438 464.300781 554.988281 L 464.300781 610.113281 Z M 437.394531 585.757812 " fill-opacity="1" fill-rule="nonzero"/></g><path fill="#ff7a00" d="M 184.976562 142.203125 L 465.582031 142.203125 C 475.832031 142.203125 483.519531 134.511719 483.519531 124.253906 C 483.519531 114 475.832031 106.308594 465.582031 106.308594 L 184.976562 106.308594 C 174.726562 106.308594 167.039062 114 167.039062 124.253906 C 167.039062 134.511719 174.726562 142.203125 184.976562 142.203125 Z M 184.976562 142.203125 " fill-opacity="1" fill-rule="nonzero"/><path fill="#ff7a00" d="M 184.976562 230.65625 L 465.582031 230.65625 C 475.832031 230.65625 483.519531 222.964844 483.519531 212.707031 C 483.519531 202.453125 475.832031 194.761719 465.582031 194.761719 L 184.976562 194.761719 C 174.726562 194.761719 167.039062 202.453125 167.039062 212.707031 C 167.039062 222.964844 174.726562 230.65625 184.976562 230.65625 Z M 184.976562 230.65625 " fill-opacity="1" fill-rule="nonzero"/><path fill="#ff7a00" d="M 184.976562 319.109375 L 465.582031 319.109375 C 475.832031 319.109375 483.519531 311.417969 483.519531 301.164062 C 483.519531 290.90625 475.832031 283.214844 465.582031 283.214844 L 184.976562 283.214844 C 174.726562 283.214844 167.039062 290.90625 167.039062 301.164062 C 167.039062 311.417969 174.726562 319.109375 184.976562 319.109375 Z M 184.976562 319.109375 " fill-opacity="1" fill-rule="nonzero"/></svg>